<svg preserveAspectRatio="none" overflow="visible" style="display: block;" width="70" height="71" viewBox="0 0 70 71" fill="none" xmlns="http://www.w3.org/2000/svg">
<g id="Group 1321315423">
<g id="Rectangle 79">
<rect width="70" height="71" rx="5" fill="#F2A93B" fill-opacity="0.17"/>
<rect x="0.5" y="0.5" width="69" height="70" rx="4.5" stroke="#F2A93B" stroke-opacity="0.2"/>
</g>
<path id="Vector" d="M50 37.8974C50 47.3958 43.4375 52.145 35.6375 54.8995C35.2291 55.0397 34.7854 55.033 34.3813 54.8805C26.5625 52.145 20 47.3958 20 37.8974V24.5996C20 24.0958 20.1975 23.6126 20.5492 23.2563C20.9008 22.9 21.3777 22.6999 21.875 22.6999C25.625 22.6999 30.3125 20.4203 33.575 17.5328C33.9722 17.1889 34.4775 17 35 17C35.5225 17 36.0278 17.1889 36.425 17.5328C39.7063 20.4393 44.375 22.6999 48.125 22.6999C48.6223 22.6999 49.0992 22.9 49.4508 23.2563C49.8025 23.6126 50 24.0958 50 24.5996V37.8974Z" stroke="#F2A93B" stroke-width="4" stroke-linecap="round" stroke-linejoin="round"/>
</g>
</svg>
